<svg width="109" height="32" viewBox="0 0 109 32" fill="none" xmlns="http://www.w3.org/2000/svg">
<rect width="109" height="32" rx="10" fill="#2D2D2D"/>
<g clip-path="url(#clip0_239_721)">
<path d="M24 24.3333C28.6024 24.3333 32.3333 20.6024 32.3333 16C32.3333 11.3976 28.6024 7.66666 24 7.66666C19.3976 7.66666 15.6667 11.3976 15.6667 16C15.6667 20.6024 19.3976 24.3333 24 24.3333Z" stroke="white" stroke-width="2" stroke-linecap="round" stroke-linejoin="round"/>
<path d="M15.6667 16H32.3333" stroke="white" stroke-width="2" stroke-linecap="round" stroke-linejoin="round"/>
<path d="M24 7.66666C26.0844 9.94862 27.269 12.91 27.3333 16C27.269 19.09 26.0844 22.0514 24 24.3333C21.9156 22.0514 20.731 19.09 20.6667 16C20.731 12.91 21.9156 9.94862 24 7.66666Z" stroke="white" stroke-width="2" stroke-linecap="round" stroke-linejoin="round"/>
</g>
<path d="M39.4922 20.5L42.917 10.6357H45.3438L48.7754 20.5H46.6016L45.8701 18.1074H42.3906L41.6592 20.5H39.4922ZM44.0723 12.6045L42.8623 16.5625H45.3984L44.1953 12.6045H44.0723ZM50.252 20.5V12.9736H52.248V14.1357H52.3711C52.7129 13.3223 53.458 12.8096 54.5312 12.8096C56.2061 12.8096 57.1084 13.835 57.1084 15.6328V20.5H55.1123V16.084C55.1123 15.0244 54.6748 14.4639 53.7314 14.4639C52.8086 14.4639 52.248 15.127 52.248 16.1455V20.5H50.252ZM61.0938 20.6162C59.6582 20.6162 58.6396 19.7275 58.6396 18.3604V18.3467C58.6396 16.9932 59.6855 16.2002 61.5586 16.0908L63.377 15.9814V15.3594C63.377 14.71 62.9326 14.3408 62.1123 14.3408C61.3945 14.3408 60.9365 14.5938 60.7793 15.0381L60.7656 15.0654H58.9199L58.9268 15.0039C59.084 13.6846 60.3281 12.8096 62.2217 12.8096C64.2178 12.8096 65.3457 13.7529 65.3457 15.3594V20.5H63.377V19.502H63.2539C62.8711 20.1992 62.0781 20.6162 61.0938 20.6162ZM60.5879 18.2373C60.5879 18.8115 61.0732 19.1602 61.7637 19.1602C62.6865 19.1602 63.377 18.5518 63.377 17.7588V17.2051L61.8594 17.3008C61.0049 17.3555 60.5879 17.6768 60.5879 18.2236V18.2373ZM67.3691 20.5V10.0957H69.3652V20.5H67.3691ZM72.3252 23.1523C72.0928 23.1523 71.8398 23.1455 71.6074 23.1318V21.6279C71.7441 21.6416 71.9424 21.6484 72.127 21.6484C72.8379 21.6484 73.248 21.375 73.3916 20.7871L73.46 20.5L70.8145 12.9736H73.0088L74.5879 18.6748H74.7246L76.3037 12.9736H78.4092L75.8457 20.4932C75.1758 22.4824 74.1846 23.1523 72.3252 23.1523ZM79.626 20.5V19.3516L83.4609 14.6006V14.4775H79.6807V12.9736H85.8193V14.2451L82.2031 18.873V18.9961H85.9082V20.5H79.626ZM90.8574 20.6572C88.5674 20.6572 87.1797 19.1602 87.1797 16.7471V16.7402C87.1797 14.3477 88.5811 12.8096 90.7754 12.8096C92.9697 12.8096 94.3369 14.3135 94.3369 16.5898V17.2119H89.1553C89.1758 18.4492 89.8389 19.167 90.8984 19.167C91.7734 19.167 92.2588 18.7021 92.3955 18.415L92.416 18.374H94.2754L94.2617 18.4424C94.0293 19.3857 93.0586 20.6572 90.8574 20.6572ZM90.8096 14.3066C89.9414 14.3066 89.2988 14.8945 89.1758 15.9609H92.4229C92.2998 14.8672 91.6777 14.3066 90.8096 14.3066Z" fill="white"/>
<defs>
<clipPath id="clip0_239_721">
<rect width="20" height="20" fill="white" transform="translate(14 6)"/>
</clipPath>
</defs>
</svg>
