<svg width="40" height="40" viewBox="0 0 40 40" fill="none" xmlns="http://www.w3.org/2000/svg">
<circle cx="20" cy="20" r="19" fill="#202020" stroke="#494949" stroke-width="2"/>
<g clip-path="url(#clip0_743_685)">
<path d="M20 29.1666C25.0626 29.1666 29.1667 25.0626 29.1667 20C29.1667 14.9374 25.0626 10.8333 20 10.8333C14.9374 10.8333 10.8333 14.9374 10.8333 20C10.8333 25.0626 14.9374 29.1666 20 29.1666Z" stroke="#03B5A9" stroke-width="2" stroke-linecap="round" stroke-linejoin="round"/>
<path d="M10.8333 20H29.1667" stroke="#03B5A9" stroke-width="2" stroke-linecap="round" stroke-linejoin="round"/>
<path d="M20 10.8333C22.2928 13.3435 23.5959 16.601 23.6667 20C23.5959 23.3989 22.2928 26.6565 20 29.1666C17.7072 26.6565 16.4041 23.3989 16.3333 20C16.4041 16.601 17.7072 13.3435 20 10.8333Z" stroke="#03B5A9" stroke-width="2" stroke-linecap="round" stroke-linejoin="round"/>
</g>
<defs>
<clipPath id="clip0_743_685">
<rect width="22" height="22" fill="white" transform="translate(9 9)"/>
</clipPath>
</defs>
</svg>
